# Blender v2.78 (sub 0) OBJ File: ''
# www.blender.org
o Cube
v 0.994033 0.003437 -1.062548
v 0.994033 0.003437 0.937452
v -1.005967 0.003437 0.937452
v -1.005967 0.003437 -1.062548
v 0.667903 2.003437 -0.875202
v 0.667902 2.003437 0.750108
v -0.679837 2.003437 0.750107
v -0.679837 2.003437 -0.875203
v 0.667903 3.643129 -0.875202
v 0.667902 3.643129 0.750108
v -0.679837 3.643129 0.750107
v -0.679837 3.643129 -0.875203
v 0.667903 5.654873 -0.875202
v 0.667902 5.654873 0.750108
v -0.679837 5.654873 0.750107
v -0.679837 5.654873 -0.875203
v 0.667903 5.046692 -0.875202
v 0.667902 5.046692 0.750108
v -0.679837 5.046692 -0.875203
v -0.679837 5.046692 0.750107
vn 0.0000 -1.0000 0.0000
vn -0.0000 0.0000 1.0000
vn 0.9870 0.1609 0.0000
vn 0.0000 0.0933 0.9956
vn -0.9870 0.1609 -0.0000
vn 0.0000 0.0933 -0.9956
vn 1.0000 0.0000 0.0000
vn -1.0000 0.0000 0.0000
vn 0.0000 0.0000 -1.0000
vn 0.0000 1.0000 -0.0000
s off
f 2//1 4//1 1//1
f 6//2 11//2 7//2
f 5//3 2//3 1//3
f 6//4 3//4 2//4
f 7//5 4//5 3//5
f 1//6 8//6 5//6
f 10//2 20//2 11//2
f 5//7 10//7 6//7
f 7//8 12//8 8//8
f 8//9 9//9 5//9
f 13//10 15//10 14//10
f 9//7 18//7 10//7
f 11//8 19//8 12//8
f 12//9 17//9 9//9
f 14//7 17//7 13//7
f 13//9 19//9 16//9
f 15//2 18//2 14//2
f 16//8 20//8 15//8
f 2//1 3//1 4//1
f 6//2 10//2 11//2
f 5//3 6//3 2//3
f 6//4 7//4 3//4
f 7//5 8//5 4//5
f 1//6 4//6 8//6
f 10//2 18//2 20//2
f 5//7 9//7 10//7
f 7//8 11//8 12//8
f 8//9 12//9 9//9
f 13//10 16//10 15//10
f 9//7 17//7 18//7
f 11//8 20//8 19//8
f 12//9 19//9 17//9
f 14//7 18//7 17//7
f 13//9 17//9 19//9
f 15//2 20//2 18//2
f 16//8 19//8 20//8
